<svg width="141" height="26" viewBox="0 0 141 26" fill="none" xmlns="http://www.w3.org/2000/svg">
<path d="M21.84 6.652L26.664 19H24.756L23.712 16.318H17.808L16.782 19H15.072L19.896 6.652H21.84ZM20.832 8.776H20.724L18.438 14.716H23.1L20.832 8.776ZM31.8362 9.622C32.5682 9.622 33.2222 9.784 33.7982 10.108C34.3862 10.42 34.8422 10.864 35.1662 11.44C35.4902 12.016 35.6522 12.676 35.6522 13.42H33.9782C33.9782 12.676 33.7862 12.082 33.4022 11.638C33.0302 11.194 32.4902 10.972 31.7822 10.972C31.0382 10.972 30.4442 11.224 30.0002 11.728C29.5682 12.22 29.3522 12.898 29.3522 13.762V14.734C29.3522 15.778 29.5682 16.558 30.0002 17.074C30.4322 17.578 31.0442 17.83 31.8362 17.83C32.5682 17.83 33.1142 17.614 33.4742 17.182C33.8462 16.738 34.0322 16.144 34.0322 15.4H35.6522C35.6522 16.552 35.3042 17.47 34.6082 18.154C33.9242 18.838 33.0062 19.18 31.8542 19.18H31.7102C30.8942 19.18 30.1802 18.994 29.5682 18.622C28.9562 18.238 28.4822 17.704 28.1462 17.02C27.8222 16.336 27.6602 15.538 27.6602 14.626V14.194C27.6602 13.282 27.8282 12.484 28.1642 11.8C28.5002 11.104 28.9742 10.57 29.5862 10.198C30.1982 9.814 30.9002 9.622 31.6922 9.622H31.8362ZM41.6452 9.622C42.8572 9.622 43.7572 9.862 44.3452 10.342C44.9452 10.822 45.2452 11.518 45.2452 12.43V17.2C45.2452 17.416 45.2932 17.578 45.3892 17.686C45.4852 17.782 45.6052 17.83 45.7492 17.83C46.0252 17.83 46.3012 17.746 46.5772 17.578V18.82C46.1692 19.06 45.7072 19.18 45.1912 19.18C44.6752 19.18 44.2912 19.036 44.0392 18.748C43.7872 18.448 43.6492 18.04 43.6252 17.524C42.8812 18.628 41.8072 19.18 40.4032 19.18C39.3952 19.18 38.6392 18.964 38.1352 18.532C37.6432 18.088 37.3972 17.392 37.3972 16.444C37.3972 15.7 37.5892 15.118 37.9732 14.698C38.3572 14.266 38.9932 13.954 39.8812 13.762C40.7692 13.57 41.9932 13.474 43.5532 13.474V12.628C43.5532 12.016 43.3732 11.59 43.0132 11.35C42.6532 11.098 42.1312 10.972 41.4472 10.972C40.7992 10.972 40.2952 11.098 39.9352 11.35C39.5752 11.602 39.3952 11.956 39.3952 12.412V12.628H37.7392C37.7152 12.46 37.7032 12.262 37.7032 12.034C37.7032 11.614 37.8712 11.218 38.2072 10.846C38.5432 10.474 38.9992 10.18 39.5752 9.964C40.1512 9.736 40.7872 9.622 41.4832 9.622H41.6452ZM43.5532 14.788C42.2932 14.788 41.3392 14.854 40.6912 14.986C40.0552 15.106 39.6292 15.292 39.4132 15.544C39.1972 15.796 39.0892 16.144 39.0892 16.588C39.0892 17.416 39.7192 17.83 40.9792 17.83C41.4232 17.83 41.8432 17.722 42.2392 17.506C42.6352 17.278 42.9532 16.96 43.1932 16.552C43.4332 16.144 43.5532 15.676 43.5532 15.148V14.788ZM56.0625 19H54.8025C54.7185 18.616 54.6405 18.196 54.5685 17.74C53.8845 18.7 52.9365 19.18 51.7245 19.18C50.5725 19.18 49.6605 18.754 48.9885 17.902C48.3285 17.05 47.9985 15.88 47.9985 14.392V14.194C47.9985 12.79 48.3225 11.68 48.9705 10.864C49.6305 10.036 50.5485 9.622 51.7245 9.622C52.8645 9.622 53.7465 10.072 54.3705 10.972V6.04H56.0625V19ZM52.0305 10.972C51.2265 10.972 50.6325 11.254 50.2485 11.818C49.8765 12.37 49.6905 13.234 49.6905 14.41C49.6905 15.586 49.8825 16.45 50.2665 17.002C50.6505 17.554 51.2385 17.83 52.0305 17.83C53.6025 17.83 54.3885 16.69 54.3885 14.41C54.3885 13.234 54.1905 12.37 53.7945 11.818C53.3985 11.254 52.8105 10.972 52.0305 10.972ZM62.7406 9.622C63.4966 9.622 64.1626 9.784 64.7386 10.108C65.3266 10.42 65.7826 10.87 66.1066 11.458C66.4306 12.046 66.5926 12.73 66.5926 13.51V14.788H60.1666C60.1906 15.76 60.4186 16.51 60.8506 17.038C61.2826 17.566 61.9246 17.83 62.7766 17.83C63.5326 17.83 64.0906 17.608 64.4506 17.164C64.8106 16.72 64.9906 16.192 64.9906 15.58H66.5926C66.5926 16.3 66.4246 16.93 66.0886 17.47C65.7646 18.01 65.3086 18.43 64.7206 18.73C64.1446 19.03 63.4846 19.18 62.7406 19.18H62.6686C61.3726 19.18 60.3466 18.766 59.5906 17.938C58.8466 17.098 58.4746 15.982 58.4746 14.59V14.23C58.4746 13.318 58.6426 12.514 58.9786 11.818C59.3146 11.122 59.7946 10.582 60.4186 10.198C61.0426 9.814 61.7746 9.622 62.6146 9.622H62.7406ZM62.6506 10.972C61.9666 10.972 61.4086 11.182 60.9766 11.602C60.5566 12.022 60.2986 12.646 60.2026 13.474H64.9186V13.258C64.9186 12.574 64.7086 12.022 64.2886 11.602C63.8806 11.182 63.3346 10.972 62.6506 10.972ZM78.7546 9.622C79.7026 9.622 80.4406 9.898 80.9686 10.45C81.4966 11.002 81.7606 11.788 81.7606 12.808V19H80.0686V13.114C80.0686 11.686 79.5166 10.972 78.4126 10.972C78.0286 10.972 77.6686 11.086 77.3326 11.314C77.0086 11.542 76.7446 11.854 76.5406 12.25C76.3486 12.634 76.2526 13.06 76.2526 13.528V19H74.5606V13.114C74.5606 11.686 74.0086 10.972 72.9046 10.972C72.5206 10.972 72.1606 11.086 71.8246 11.314C71.5006 11.542 71.2366 11.854 71.0326 12.25C70.8406 12.634 70.7446 13.06 70.7446 13.528V19H69.0526V9.802H70.2766L70.5106 11.152C71.2066 10.132 72.1726 9.622 73.4086 9.622C74.6206 9.622 75.4606 10.132 75.9286 11.152C76.3366 10.576 76.7746 10.18 77.2426 9.964C77.7106 9.736 78.2146 9.622 78.7546 9.622ZM86.39 6.04V7.606H84.626V6.04H86.39ZM86.354 9.802V19H84.662V9.802H86.354ZM92.9378 9.622C93.6698 9.622 94.3238 9.784 94.8998 10.108C95.4878 10.42 95.9438 10.864 96.2678 11.44C96.5918 12.016 96.7538 12.676 96.7538 13.42H95.0798C95.0798 12.676 94.8878 12.082 94.5038 11.638C94.1318 11.194 93.5918 10.972 92.8838 10.972C92.1398 10.972 91.5458 11.224 91.1018 11.728C90.6698 12.22 90.4538 12.898 90.4538 13.762V14.734C90.4538 15.778 90.6698 16.558 91.1018 17.074C91.5338 17.578 92.1458 17.83 92.9378 17.83C93.6698 17.83 94.2158 17.614 94.5758 17.182C94.9478 16.738 95.1338 16.144 95.1338 15.4H96.7538C96.7538 16.552 96.4058 17.47 95.7098 18.154C95.0258 18.838 94.1078 19.18 92.9558 19.18H92.8118C91.9958 19.18 91.2818 18.994 90.6698 18.622C90.0578 18.238 89.5838 17.704 89.2478 17.02C88.9238 16.336 88.7618 15.538 88.7618 14.626V14.194C88.7618 13.282 88.9298 12.484 89.2658 11.8C89.6018 11.104 90.0758 10.57 90.6878 10.198C91.2998 9.814 92.0018 9.622 92.7938 9.622H92.9378ZM103.287 6.472C104.643 6.472 105.705 6.772 106.473 7.372C107.253 7.972 107.643 8.824 107.643 9.928V10.144H105.879V9.874C105.879 9.298 105.645 8.854 105.177 8.542C104.709 8.23 104.091 8.074 103.323 8.074C102.471 8.074 101.805 8.218 101.325 8.506C100.857 8.782 100.623 9.184 100.623 9.712C100.623 10.108 100.755 10.432 101.019 10.684C101.295 10.936 101.631 11.134 102.027 11.278C102.435 11.422 102.993 11.584 103.701 11.764C104.613 12.004 105.351 12.238 105.915 12.466C106.479 12.694 106.959 13.036 107.355 13.492C107.763 13.948 107.967 14.554 107.967 15.31C107.967 16.654 107.553 17.638 106.725 18.262C105.909 18.874 104.757 19.18 103.269 19.18C101.781 19.18 100.623 18.868 99.7948 18.244C98.9788 17.608 98.5708 16.69 98.5708 15.49L98.5888 15.13H100.353L100.335 15.508C100.335 16.204 100.593 16.726 101.109 17.074C101.637 17.41 102.363 17.578 103.287 17.578C104.187 17.578 104.895 17.416 105.411 17.092C105.939 16.756 106.203 16.3 106.203 15.724C106.203 15.268 106.059 14.902 105.771 14.626C105.495 14.338 105.141 14.116 104.709 13.96C104.289 13.804 103.713 13.63 102.981 13.438C102.081 13.198 101.361 12.97 100.821 12.754C100.281 12.538 99.8188 12.208 99.4348 11.764C99.0508 11.308 98.8588 10.714 98.8588 9.982C98.8588 8.794 99.2608 7.912 100.065 7.336C100.869 6.76 101.943 6.472 103.287 6.472ZM112.106 10.954C112.862 10.066 113.81 9.622 114.95 9.622C115.958 9.622 116.75 9.892 117.326 10.432C117.902 10.972 118.19 11.764 118.19 12.808V19H116.498V13.114C116.498 11.686 115.85 10.972 114.554 10.972C114.122 10.972 113.72 11.086 113.348 11.314C112.976 11.542 112.676 11.854 112.448 12.25C112.22 12.634 112.106 13.06 112.106 13.528V19H110.414V6.04H112.106V10.954ZM124.774 9.622C125.53 9.622 126.196 9.784 126.772 10.108C127.36 10.42 127.816 10.87 128.14 11.458C128.464 12.046 128.626 12.73 128.626 13.51V14.788H122.2C122.224 15.76 122.452 16.51 122.884 17.038C123.316 17.566 123.958 17.83 124.81 17.83C125.566 17.83 126.124 17.608 126.484 17.164C126.844 16.72 127.024 16.192 127.024 15.58H128.626C128.626 16.3 128.458 16.93 128.122 17.47C127.798 18.01 127.342 18.43 126.754 18.73C126.178 19.03 125.518 19.18 124.774 19.18H124.702C123.406 19.18 122.38 18.766 121.624 17.938C120.88 17.098 120.508 15.982 120.508 14.59V14.23C120.508 13.318 120.676 12.514 121.012 11.818C121.348 11.122 121.828 10.582 122.452 10.198C123.076 9.814 123.808 9.622 124.648 9.622H124.774ZM124.684 10.972C124 10.972 123.442 11.182 123.01 11.602C122.59 12.022 122.332 12.646 122.236 13.474H126.952V13.258C126.952 12.574 126.742 12.022 126.322 11.602C125.914 11.182 125.368 10.972 124.684 10.972ZM132.85 6.04V19H131.158V6.04H132.85ZM138.404 5.896C139.088 5.896 139.652 6.01 140.096 6.238V7.48C139.736 7.324 139.43 7.246 139.178 7.246C138.698 7.246 138.374 7.336 138.206 7.516C138.038 7.684 137.954 7.972 137.954 8.38V9.802H140.096V11.152H137.954V19H136.262V11.152H135.254V9.802H136.262V8.56C136.262 6.784 136.976 5.896 138.404 5.896Z" fill="white"/>
<path d="M1 7H1.33333M1.33333 7H10V20L5.66667 15.4324L1.33333 20V7Z" stroke="white"/>
</svg>
